<?xml version="1.0" standalone="no"?>
<!DOCTYPE svg PUBLIC "-//W3C//DTD SVG 20010904//EN"
 "http://www.w3.org/TR/2001/REC-SVG-20010904/DTD/svg10.dtd">
<svg version="1.0" xmlns="http://www.w3.org/2000/svg"
 width="512.000000pt" height="512.000000pt" viewBox="0 0 512.000000 512.000000"
 preserveAspectRatio="xMidYMid meet">
<metadata>
Created by potrace 1.14, written by Peter Selinger 2001-2017
</metadata>
<g transform="translate(0.000000,512.000000) scale(0.100000,-0.100000)"
fill="#000000" stroke="none">
<path d="M1444 4554 c-83 -17 -138 -46 -199 -108 -166 -167 -148 -447 38 -592
66 -52 165 -82 252 -79 89 4 117 10 179 41 125 60 205 185 211 331 13 270
-214 462 -481 407z"/>
<path d="M2519 3608 c-20 -5 -50 -24 -66 -41 -24 -26 -206 -309 -353 -551 -14
-23 -35 -57 -47 -76 -35 -54 -168 -268 -407 -653 -121 -193 -232 -365 -247
-381 -58 -61 -138 -21 -131 66 1 14 438 723 558 905 19 28 34 55 34 59 0 16
-53 75 -93 103 -128 88 -311 72 -416 -37 -20 -21 -153 -224 -295 -452 -142
-228 -269 -431 -281 -450 -13 -19 -103 -163 -200 -320 -98 -157 -195 -312
-217 -345 -32 -49 -38 -66 -34 -94 3 -19 14 -43 24 -54 19 -19 68 -19 2200
-19 1199 0 2189 3 2201 7 24 7 44 39 48 72 1 15 -121 219 -344 575 -190 304
-353 565 -362 580 -46 78 -202 325 -257 409 -86 130 -158 178 -276 184 -103 5
-197 -34 -265 -109 l-32 -34 32 -50 c61 -97 119 -189 317 -507 110 -176 203
-325 207 -330 22 -28 53 -95 53 -114 0 -50 -72 -87 -120 -61 -14 7 -619 961
-851 1340 -86 141 -194 310 -212 330 -40 48 -101 65 -168 48z"/>
<path d="M614 1038 c-23 -11 -44 -48 -44 -77 0 -10 11 -30 25 -45 l24 -26 988
0 c543 0 993 4 999 8 19 13 44 56 44 75 0 10 -13 32 -29 48 l-29 29 -979 -1
c-652 0 -985 -4 -999 -11z"/>
<path d="M3493 1038 c-28 -13 -46 -58 -37 -92 14 -57 4 -56 550 -56 276 0 510
3 519 6 18 7 45 55 45 79 0 9 -13 30 -29 46 l-29 29 -499 -1 c-327 0 -505 -4
-520 -11z"/>
<path d="M2533 718 c-28 -13 -46 -58 -37 -92 14 -57 3 -56 554 -56 468 0 507
2 528 18 13 10 25 32 28 50 4 26 0 38 -25 62 l-29 30 -499 -1 c-327 0 -505 -4
-520 -11z"/>
<path d="M1094 398 c-47 -22 -56 -86 -19 -123 l24 -25 508 0 c471 0 510 2 531
18 13 10 25 32 28 50 4 26 0 38 -25 62 l-29 30 -499 -1 c-321 0 -506 -4 -519
-11z"/>
</g>
</svg>
